<svg width="86" height="83" viewBox="0 0 86 83" fill="none" xmlns="http://www.w3.org/2000/svg">
<g opacity="0.3">
<mask id="mask0_1_11" style="mask-type:alpha" maskUnits="userSpaceOnUse" x="0" y="0" width="8" height="9">
<path d="M3.90962 8.60093C6.06885 8.60093 7.81925 6.7035 7.81925 4.36294C7.81925 2.02238 6.06885 0.125 3.90962 0.125C1.7504 0.125 0 2.02238 0 4.36294C0 6.7035 1.7504 8.60093 3.90962 8.60093Z" fill="url(#paint0_linear_1_11)"/>
</mask>
<g mask="url(#mask0_1_11)">
<path d="M3.90962 8.60093C6.06885 8.60093 7.81925 6.7035 7.81925 4.36294C7.81925 2.02238 6.06885 0.125 3.90962 0.125C1.7504 0.125 0 2.02238 0 4.36294C0 6.7035 1.7504 8.60093 3.90962 8.60093Z" fill="url(#paint1_linear_1_11)"/>
</g>
<mask id="mask1_1_11" style="mask-type:alpha" maskUnits="userSpaceOnUse" x="22" y="0" width="9" height="9">
<path d="M26.5525 8.60093C28.7117 8.60093 30.4621 6.7035 30.4621 4.36294C30.4621 2.02238 28.7117 0.125 26.5525 0.125C24.3933 0.125 22.6429 2.02238 22.6429 4.36294C22.6429 6.7035 24.3933 8.60093 26.5525 8.60093Z" fill="url(#paint2_linear_1_11)"/>
</mask>
<g mask="url(#mask1_1_11)">
<path d="M26.5529 8.60093C28.7121 8.60093 30.4625 6.7035 30.4625 4.36294C30.4625 2.02238 28.7121 0.125 26.5529 0.125C24.3937 0.125 22.6432 2.02238 22.6432 4.36294C22.6432 6.7035 24.3937 8.60093 26.5529 8.60093Z" fill="url(#paint3_linear_1_11)"/>
</g>
<mask id="mask2_1_11" style="mask-type:alpha" maskUnits="userSpaceOnUse" x="45" y="0" width="9" height="9">
<path d="M49.1953 8.60093C51.3546 8.60093 53.105 6.7035 53.105 4.36294C53.105 2.02238 51.3546 0.125 49.1953 0.125C47.0361 0.125 45.2857 2.02238 45.2857 4.36294C45.2857 6.7035 47.0361 8.60093 49.1953 8.60093Z" fill="url(#paint4_linear_1_11)"/>
</mask>
<g mask="url(#mask2_1_11)">
<path d="M49.196 8.60093C51.3552 8.60093 53.1056 6.7035 53.1056 4.36294C53.1056 2.02238 51.3552 0.125 49.196 0.125C47.0368 0.125 45.2864 2.02238 45.2864 4.36294C45.2864 6.7035 47.0368 8.60093 49.196 8.60093Z" fill="url(#paint5_linear_1_11)"/>
</g>
<mask id="mask3_1_11" style="mask-type:alpha" maskUnits="userSpaceOnUse" x="67" y="0" width="9" height="9">
<path d="M71.8382 8.60093C73.9974 8.60093 75.7478 6.7035 75.7478 4.36294C75.7478 2.02238 73.9974 0.125 71.8382 0.125C69.6789 0.125 67.9285 2.02238 67.9285 4.36294C67.9285 6.7035 69.6789 8.60093 71.8382 8.60093Z" fill="url(#paint6_linear_1_11)"/>
</mask>
<g mask="url(#mask3_1_11)">
<path d="M71.8388 8.60093C73.998 8.60093 75.7484 6.7035 75.7484 4.36294C75.7484 2.02238 73.998 0.125 71.8388 0.125C69.6795 0.125 67.9291 2.02238 67.9291 4.36294C67.9291 6.7035 69.6795 8.60093 71.8388 8.60093Z" fill="url(#paint7_linear_1_11)"/>
</g>
<mask id="mask4_1_11" style="mask-type:alpha" maskUnits="userSpaceOnUse" x="0" y="21" width="8" height="9">
<path d="M3.90962 29.8789C6.06885 29.8789 7.81925 27.9815 7.81925 25.641C7.81925 23.3004 6.06885 21.403 3.90962 21.403C1.7504 21.403 0 23.3004 0 25.641C0 27.9815 1.7504 29.8789 3.90962 29.8789Z" fill="url(#paint8_linear_1_11)"/>
</mask>
<g mask="url(#mask4_1_11)">
<path d="M3.90962 29.879C6.06885 29.879 7.81925 27.9816 7.81925 25.641C7.81925 23.3005 6.06885 21.4031 3.90962 21.4031C1.7504 21.4031 0 23.3005 0 25.641C0 27.9816 1.7504 29.879 3.90962 29.879Z" fill="url(#paint9_linear_1_11)"/>
</g>
<mask id="mask5_1_11" style="mask-type:alpha" maskUnits="userSpaceOnUse" x="22" y="21" width="9" height="9">
<path d="M26.5525 29.879C28.7117 29.879 30.4621 27.9816 30.4621 25.6411C30.4621 23.3005 28.7117 21.4032 26.5525 21.4032C24.3933 21.4032 22.6429 23.3005 22.6429 25.6411C22.6429 27.9816 24.3933 29.879 26.5525 29.879Z" fill="url(#paint10_linear_1_11)"/>
</mask>
<g mask="url(#mask5_1_11)">
<path d="M26.5529 29.879C28.7121 29.879 30.4625 27.9816 30.4625 25.641C30.4625 23.3005 28.7121 21.4031 26.5529 21.4031C24.3937 21.4031 22.6432 23.3005 22.6432 25.641C22.6432 27.9816 24.3937 29.879 26.5529 29.879Z" fill="url(#paint11_linear_1_11)"/>
</g>
<mask id="mask6_1_11" style="mask-type:alpha" maskUnits="userSpaceOnUse" x="45" y="21" width="9" height="9">
<path d="M49.1953 29.879C51.3546 29.879 53.105 27.9816 53.105 25.6411C53.105 23.3005 51.3546 21.4032 49.1953 21.4032C47.0361 21.4032 45.2857 23.3005 45.2857 25.6411C45.2857 27.9816 47.0361 29.879 49.1953 29.879Z" fill="url(#paint12_linear_1_11)"/>
</mask>
<g mask="url(#mask6_1_11)">
<path d="M49.196 29.879C51.3552 29.879 53.1056 27.9816 53.1056 25.641C53.1056 23.3005 51.3552 21.4031 49.196 21.4031C47.0368 21.4031 45.2864 23.3005 45.2864 25.641C45.2864 27.9816 47.0368 29.879 49.196 29.879Z" fill="url(#paint13_linear_1_11)"/>
</g>
<mask id="mask7_1_11" style="mask-type:alpha" maskUnits="userSpaceOnUse" x="67" y="21" width="9" height="9">
<path d="M71.8382 29.879C73.9974 29.879 75.7478 27.9816 75.7478 25.6411C75.7478 23.3005 73.9974 21.4032 71.8382 21.4032C69.6789 21.4032 67.9285 23.3005 67.9285 25.6411C67.9285 27.9816 69.6789 29.879 71.8382 29.879Z" fill="url(#paint14_linear_1_11)"/>
</mask>
<g mask="url(#mask7_1_11)">
<path d="M71.8388 29.879C73.998 29.879 75.7484 27.9816 75.7484 25.641C75.7484 23.3005 73.998 21.4031 71.8388 21.4031C69.6795 21.4031 67.9291 23.3005 67.9291 25.641C67.9291 27.9816 69.6795 29.879 71.8388 29.879Z" fill="url(#paint15_linear_1_11)"/>
</g>
<mask id="mask8_1_11" style="mask-type:alpha" maskUnits="userSpaceOnUse" x="0" y="42" width="8" height="10">
<path d="M3.90962 51.113C6.06885 51.113 7.81925 49.2156 7.81925 46.875C7.81925 44.5344 6.06885 42.637 3.90962 42.637C1.7504 42.637 0 44.5344 0 46.875C0 49.2156 1.7504 51.113 3.90962 51.113Z" fill="url(#paint16_linear_1_11)"/>
</mask>
<g mask="url(#mask8_1_11)">
<path d="M3.90962 51.113C6.06885 51.113 7.81925 49.2157 7.81925 46.8751C7.81925 44.5345 6.06885 42.6371 3.90962 42.6371C1.7504 42.6371 0 44.5345 0 46.8751C0 49.2157 1.7504 51.113 3.90962 51.113Z" fill="url(#paint17_linear_1_11)"/>
</g>
<mask id="mask9_1_11" style="mask-type:alpha" maskUnits="userSpaceOnUse" x="22" y="42" width="9" height="10">
<path d="M26.5525 51.1133C28.7117 51.1133 30.4621 49.2159 30.4621 46.8753C30.4621 44.5347 28.7117 42.6373 26.5525 42.6373C24.3933 42.6373 22.6429 44.5347 22.6429 46.8753C22.6429 49.2159 24.3933 51.1133 26.5525 51.1133Z" fill="url(#paint18_linear_1_11)"/>
</mask>
<g mask="url(#mask9_1_11)">
<path d="M26.5529 51.1131C28.7121 51.1131 30.4625 49.2157 30.4625 46.8751C30.4625 44.5345 28.7121 42.6371 26.5529 42.6371C24.3937 42.6371 22.6432 44.5345 22.6432 46.8751C22.6432 49.2157 24.3937 51.1131 26.5529 51.1131Z" fill="url(#paint19_linear_1_11)"/>
</g>
<mask id="mask10_1_11" style="mask-type:alpha" maskUnits="userSpaceOnUse" x="45" y="42" width="9" height="10">
<path d="M49.1953 51.1133C51.3546 51.1133 53.105 49.2159 53.105 46.8753C53.105 44.5347 51.3546 42.6373 49.1953 42.6373C47.0361 42.6373 45.2857 44.5347 45.2857 46.8753C45.2857 49.2159 47.0361 51.1133 49.1953 51.1133Z" fill="url(#paint20_linear_1_11)"/>
</mask>
<g mask="url(#mask10_1_11)">
<path d="M49.196 51.1131C51.3552 51.1131 53.1056 49.2157 53.1056 46.8751C53.1056 44.5345 51.3552 42.6371 49.196 42.6371C47.0368 42.6371 45.2864 44.5345 45.2864 46.8751C45.2864 49.2157 47.0368 51.1131 49.196 51.1131Z" fill="url(#paint21_linear_1_11)"/>
</g>
<mask id="mask11_1_11" style="mask-type:alpha" maskUnits="userSpaceOnUse" x="67" y="42" width="9" height="10">
<path d="M71.8382 51.1133C73.9974 51.1133 75.7478 49.2159 75.7478 46.8753C75.7478 44.5347 73.9974 42.6373 71.8382 42.6373C69.6789 42.6373 67.9285 44.5347 67.9285 46.8753C67.9285 49.2159 69.6789 51.1133 71.8382 51.1133Z" fill="url(#paint22_linear_1_11)"/>
</mask>
<g mask="url(#mask11_1_11)">
<path d="M71.8388 51.1131C73.998 51.1131 75.7484 49.2157 75.7484 46.8751C75.7484 44.5345 73.998 42.6371 71.8388 42.6371C69.6795 42.6371 67.9291 44.5345 67.9291 46.8751C67.9291 49.2157 69.6795 51.1131 71.8388 51.1131Z" fill="url(#paint23_linear_1_11)"/>
</g>
<mask id="mask12_1_11" style="mask-type:alpha" maskUnits="userSpaceOnUse" x="0" y="63" width="8" height="10">
<path d="M3.90962 72.3914C6.06885 72.3914 7.81925 70.494 7.81925 68.1534C7.81925 65.8129 6.06885 63.9155 3.90962 63.9155C1.7504 63.9155 0 65.8129 0 68.1534C0 70.494 1.7504 72.3914 3.90962 72.3914Z" fill="url(#paint24_linear_1_11)"/>
</mask>
<g mask="url(#mask12_1_11)">
<path d="M3.90962 72.3912C6.06885 72.3912 7.81925 70.4937 7.81925 68.1532C7.81925 65.8126 6.06885 63.9153 3.90962 63.9153C1.7504 63.9153 0 65.8126 0 68.1532C0 70.4937 1.7504 72.3912 3.90962 72.3912Z" fill="url(#paint25_linear_1_11)"/>
</g>
<mask id="mask13_1_11" style="mask-type:alpha" maskUnits="userSpaceOnUse" x="22" y="63" width="9" height="10">
<path d="M26.5525 72.3914C28.7117 72.3914 30.4621 70.494 30.4621 68.1534C30.4621 65.8129 28.7117 63.9155 26.5525 63.9155C24.3933 63.9155 22.6429 65.8129 22.6429 68.1534C22.6429 70.494 24.3933 72.3914 26.5525 72.3914Z" fill="url(#paint26_linear_1_11)"/>
</mask>
<g mask="url(#mask13_1_11)">
<path d="M26.5529 72.3912C28.7121 72.3912 30.4625 70.4937 30.4625 68.1532C30.4625 65.8126 28.7121 63.9153 26.5529 63.9153C24.3937 63.9153 22.6432 65.8126 22.6432 68.1532C22.6432 70.4937 24.3937 72.3912 26.5529 72.3912Z" fill="url(#paint27_linear_1_11)"/>
</g>
<mask id="mask14_1_11" style="mask-type:alpha" maskUnits="userSpaceOnUse" x="45" y="63" width="9" height="10">
<path d="M49.1953 72.3914C51.3546 72.3914 53.105 70.494 53.105 68.1534C53.105 65.8129 51.3546 63.9155 49.1953 63.9155C47.0361 63.9155 45.2857 65.8129 45.2857 68.1534C45.2857 70.494 47.0361 72.3914 49.1953 72.3914Z" fill="url(#paint28_linear_1_11)"/>
</mask>
<g mask="url(#mask14_1_11)">
<path d="M49.196 72.3912C51.3552 72.3912 53.1056 70.4937 53.1056 68.1532C53.1056 65.8126 51.3552 63.9153 49.196 63.9153C47.0368 63.9153 45.2864 65.8126 45.2864 68.1532C45.2864 70.4937 47.0368 72.3912 49.196 72.3912Z" fill="url(#paint29_linear_1_11)"/>
</g>
<mask id="mask15_1_11" style="mask-type:alpha" maskUnits="userSpaceOnUse" x="67" y="63" width="9" height="10">
<path d="M71.8382 72.3914C73.9974 72.3914 75.7478 70.494 75.7478 68.1534C75.7478 65.8129 73.9974 63.9155 71.8382 63.9155C69.6789 63.9155 67.9285 65.8129 67.9285 68.1534C67.9285 70.494 69.6789 72.3914 71.8382 72.3914Z" fill="url(#paint30_linear_1_11)"/>
</mask>
<g mask="url(#mask15_1_11)">
<path d="M71.8388 72.3912C73.998 72.3912 75.7484 70.4937 75.7484 68.1532C75.7484 65.8126 73.998 63.9153 71.8388 63.9153C69.6795 63.9153 67.9291 65.8126 67.9291 68.1532C67.9291 70.4937 69.6795 72.3912 71.8388 72.3912Z" fill="url(#paint31_linear_1_11)"/>
</g>
</g>
<defs>
<linearGradient id="paint0_linear_1_11" x1="38.076" y1="98.3751" x2="-23.5437" y2="-45.9256" gradientUnits="userSpaceOnUse">
<stop stop-color="#FFA434"/>
<stop offset="1" stop-color="#FFA434"/>
</linearGradient>
<linearGradient id="paint1_linear_1_11" x1="38.076" y1="98.3751" x2="-23.5437" y2="-45.9256" gradientUnits="userSpaceOnUse">
<stop stop-color="#FFA434"/>
<stop offset="1" stop-color="#FFA434"/>
</linearGradient>
<linearGradient id="paint2_linear_1_11" x1="60.7189" y1="98.3751" x2="-0.900746" y2="-45.9257" gradientUnits="userSpaceOnUse">
<stop stop-color="#FFA434"/>
<stop offset="1" stop-color="#FFA434"/>
</linearGradient>
<linearGradient id="paint3_linear_1_11" x1="60.7193" y1="98.3751" x2="-0.900379" y2="-45.9257" gradientUnits="userSpaceOnUse">
<stop stop-color="#FFA434"/>
<stop offset="1" stop-color="#FFA434"/>
</linearGradient>
<linearGradient id="paint4_linear_1_11" x1="83.3617" y1="98.3751" x2="21.7421" y2="-45.9257" gradientUnits="userSpaceOnUse">
<stop stop-color="#FFA434"/>
<stop offset="1" stop-color="#FFA434"/>
</linearGradient>
<linearGradient id="paint5_linear_1_11" x1="83.3624" y1="98.3751" x2="21.7427" y2="-45.9257" gradientUnits="userSpaceOnUse">
<stop stop-color="#FFA434"/>
<stop offset="1" stop-color="#FFA434"/>
</linearGradient>
<linearGradient id="paint6_linear_1_11" x1="106.005" y1="98.3751" x2="44.3849" y2="-45.9257" gradientUnits="userSpaceOnUse">
<stop stop-color="#FFA434"/>
<stop offset="1" stop-color="#FFA434"/>
</linearGradient>
<linearGradient id="paint7_linear_1_11" x1="106.005" y1="98.3751" x2="44.3855" y2="-45.9257" gradientUnits="userSpaceOnUse">
<stop stop-color="#FFA434"/>
<stop offset="1" stop-color="#FFA434"/>
</linearGradient>
<linearGradient id="paint8_linear_1_11" x1="38.076" y1="119.652" x2="-23.5427" y2="-24.6476" gradientUnits="userSpaceOnUse">
<stop stop-color="#FFA434"/>
<stop offset="1" stop-color="#FFA434"/>
</linearGradient>
<linearGradient id="paint9_linear_1_11" x1="38.076" y1="119.652" x2="-23.5427" y2="-24.6475" gradientUnits="userSpaceOnUse">
<stop stop-color="#FFA434"/>
<stop offset="1" stop-color="#FFA434"/>
</linearGradient>
<linearGradient id="paint10_linear_1_11" x1="60.7189" y1="119.652" x2="-0.899714" y2="-24.6475" gradientUnits="userSpaceOnUse">
<stop stop-color="#FFA434"/>
<stop offset="1" stop-color="#FFA434"/>
</linearGradient>
<linearGradient id="paint11_linear_1_11" x1="60.7193" y1="119.652" x2="-0.899347" y2="-24.6476" gradientUnits="userSpaceOnUse">
<stop stop-color="#FFA434"/>
<stop offset="1" stop-color="#FFA434"/>
</linearGradient>
<linearGradient id="paint12_linear_1_11" x1="83.3617" y1="119.652" x2="21.7431" y2="-24.6475" gradientUnits="userSpaceOnUse">
<stop stop-color="#FFA434"/>
<stop offset="1" stop-color="#FFA434"/>
</linearGradient>
<linearGradient id="paint13_linear_1_11" x1="83.3624" y1="119.652" x2="21.7438" y2="-24.6476" gradientUnits="userSpaceOnUse">
<stop stop-color="#FFA434"/>
<stop offset="1" stop-color="#FFA434"/>
</linearGradient>
<linearGradient id="paint14_linear_1_11" x1="106.005" y1="119.652" x2="44.3859" y2="-24.6475" gradientUnits="userSpaceOnUse">
<stop stop-color="#FFA434"/>
<stop offset="1" stop-color="#FFA434"/>
</linearGradient>
<linearGradient id="paint15_linear_1_11" x1="106.005" y1="119.652" x2="44.3865" y2="-24.6476" gradientUnits="userSpaceOnUse">
<stop stop-color="#FFA434"/>
<stop offset="1" stop-color="#FFA434"/>
</linearGradient>
<linearGradient id="paint16_linear_1_11" x1="38.076" y1="140.887" x2="-23.5437" y2="-3.41362" gradientUnits="userSpaceOnUse">
<stop stop-color="#FFA434"/>
<stop offset="1" stop-color="#FFA434"/>
</linearGradient>
<linearGradient id="paint17_linear_1_11" x1="38.076" y1="140.887" x2="-23.5437" y2="-3.41353" gradientUnits="userSpaceOnUse">
<stop stop-color="#FFA434"/>
<stop offset="1" stop-color="#FFA434"/>
</linearGradient>
<linearGradient id="paint18_linear_1_11" x1="60.7189" y1="140.887" x2="-0.900746" y2="-3.41337" gradientUnits="userSpaceOnUse">
<stop stop-color="#FFA434"/>
<stop offset="1" stop-color="#FFA434"/>
</linearGradient>
<linearGradient id="paint19_linear_1_11" x1="60.7193" y1="140.887" x2="-0.900379" y2="-3.41355" gradientUnits="userSpaceOnUse">
<stop stop-color="#FFA434"/>
<stop offset="1" stop-color="#FFA434"/>
</linearGradient>
<linearGradient id="paint20_linear_1_11" x1="83.3617" y1="140.887" x2="21.7421" y2="-3.41337" gradientUnits="userSpaceOnUse">
<stop stop-color="#FFA434"/>
<stop offset="1" stop-color="#FFA434"/>
</linearGradient>
<linearGradient id="paint21_linear_1_11" x1="83.3624" y1="140.887" x2="21.7427" y2="-3.41355" gradientUnits="userSpaceOnUse">
<stop stop-color="#FFA434"/>
<stop offset="1" stop-color="#FFA434"/>
</linearGradient>
<linearGradient id="paint22_linear_1_11" x1="106.005" y1="140.887" x2="44.3849" y2="-3.41337" gradientUnits="userSpaceOnUse">
<stop stop-color="#FFA434"/>
<stop offset="1" stop-color="#FFA434"/>
</linearGradient>
<linearGradient id="paint23_linear_1_11" x1="106.005" y1="140.887" x2="44.3855" y2="-3.41355" gradientUnits="userSpaceOnUse">
<stop stop-color="#FFA434"/>
<stop offset="1" stop-color="#FFA434"/>
</linearGradient>
<linearGradient id="paint24_linear_1_11" x1="38.076" y1="162.166" x2="-23.5437" y2="17.8649" gradientUnits="userSpaceOnUse">
<stop stop-color="#FFA434"/>
<stop offset="1" stop-color="#FFA434"/>
</linearGradient>
<linearGradient id="paint25_linear_1_11" x1="38.076" y1="162.165" x2="-23.5437" y2="17.8646" gradientUnits="userSpaceOnUse">
<stop stop-color="#FFA434"/>
<stop offset="1" stop-color="#FFA434"/>
</linearGradient>
<linearGradient id="paint26_linear_1_11" x1="60.7189" y1="162.166" x2="-0.900746" y2="17.8648" gradientUnits="userSpaceOnUse">
<stop stop-color="#FFA434"/>
<stop offset="1" stop-color="#FFA434"/>
</linearGradient>
<linearGradient id="paint27_linear_1_11" x1="60.7193" y1="162.165" x2="-0.900379" y2="17.8646" gradientUnits="userSpaceOnUse">
<stop stop-color="#FFA434"/>
<stop offset="1" stop-color="#FFA434"/>
</linearGradient>
<linearGradient id="paint28_linear_1_11" x1="83.3617" y1="162.166" x2="21.7421" y2="17.8648" gradientUnits="userSpaceOnUse">
<stop stop-color="#FFA434"/>
<stop offset="1" stop-color="#FFA434"/>
</linearGradient>
<linearGradient id="paint29_linear_1_11" x1="83.3624" y1="162.165" x2="21.7427" y2="17.8646" gradientUnits="userSpaceOnUse">
<stop stop-color="#FFA434"/>
<stop offset="1" stop-color="#FFA434"/>
</linearGradient>
<linearGradient id="paint30_linear_1_11" x1="106.005" y1="162.166" x2="44.3849" y2="17.8648" gradientUnits="userSpaceOnUse">
<stop stop-color="#FFA434"/>
<stop offset="1" stop-color="#FFA434"/>
</linearGradient>
<linearGradient id="paint31_linear_1_11" x1="106.005" y1="162.165" x2="44.3855" y2="17.8646" gradientUnits="userSpaceOnUse">
<stop stop-color="#FFA434"/>
<stop offset="1" stop-color="#FFA434"/>
</linearGradient>
</defs>
</svg>
